<svg width="696" height="167" viewBox="0 0 696 167" fill="none" xmlns="http://www.w3.org/2000/svg">
<g filter="url(#filter0_di_255_164)">
<path d="M188.693 107.517C186.565 107.517 184.84 105.792 184.84 103.664V25.0579C184.84 22.9298 186.565 21.2046 188.693 21.2046H201.948C204.077 21.2046 205.802 22.9298 205.802 25.0579V103.664C205.802 105.792 204.077 107.517 201.948 107.517H188.693ZM198.434 74.4718C196.306 74.4718 194.581 72.7467 194.581 70.6186V60.816C194.581 58.6879 196.306 56.9627 198.434 56.9627H235.364C237.492 56.9627 239.217 58.6879 239.217 60.816V70.6186C239.217 72.7467 237.492 74.4718 235.364 74.4718H198.434ZM198.434 39.7002C196.306 39.7002 194.581 37.975 194.581 35.847V25.0579C194.581 22.9298 196.306 21.2046 198.434 21.2046H240.419C242.547 21.2046 244.272 22.9298 244.272 25.0579V35.847C244.272 37.975 242.547 39.7002 240.419 39.7002H198.434ZM278.245 108.874C273.395 108.874 269.243 107.846 265.791 105.791C262.421 103.654 259.79 100.612 257.899 96.6665C256.091 92.7208 255.187 87.9941 255.187 82.4866V45.8962C255.187 43.7681 256.912 42.043 259.04 42.043H271.185C273.313 42.043 275.039 43.7681 275.039 45.8962V79.7739C275.039 82.4044 275.45 84.6649 276.272 86.5556C277.094 88.4463 278.327 89.9259 279.971 90.9945C281.615 91.981 283.588 92.4742 285.889 92.4742C287.616 92.4742 289.177 92.1865 290.575 91.611C292.055 91.0356 293.288 90.2547 294.274 89.2683C295.343 88.1996 296.165 87.0077 296.74 85.6925C297.316 84.295 297.603 82.7743 297.603 81.1302V45.8962C297.603 43.7681 299.328 42.043 301.456 42.043H313.602C315.73 42.043 317.455 43.7681 317.455 45.8962V103.664C317.455 105.792 315.73 107.517 313.602 107.517H302.45C300.418 107.517 298.735 105.939 298.605 103.911L298.038 95.093C297.999 94.487 298.354 93.9246 298.918 93.6991C300.019 93.2589 301.097 94.2856 300.59 95.3565C299.625 97.3909 298.342 99.2661 296.74 100.982C294.438 103.366 291.685 105.298 288.479 106.777C285.273 108.175 281.861 108.874 278.245 108.874ZM337.658 107.517C335.53 107.517 333.805 105.792 333.805 103.664V45.8962C333.805 43.7681 335.531 42.043 337.659 42.043H348.869C350.927 42.043 352.622 43.6614 352.718 45.718L353.113 54.2488C353.143 54.911 352.743 55.5175 352.123 55.7503C350.936 56.1953 349.8 55.0958 350.363 53.9603C351.276 52.1213 352.497 50.4094 354.027 48.8247C356.411 46.3586 359.247 44.3857 362.535 42.9061C365.823 41.4264 369.276 40.6866 372.893 40.6866C377.825 40.6866 381.976 41.7142 385.346 43.7692C388.717 45.7421 391.265 48.7425 392.991 52.7704C394.717 56.7161 395.58 61.5661 395.58 67.3202V103.664C395.58 105.792 393.855 107.517 391.727 107.517H379.582C377.454 107.517 375.729 105.792 375.729 103.664V68.9232C375.729 66.2927 375.359 64.1143 374.619 62.3881C373.879 60.6618 372.728 59.3877 371.166 58.5657C369.687 57.6614 367.837 57.2504 365.618 57.3326C363.891 57.3326 362.289 57.6203 360.809 58.1958C359.329 58.689 358.055 59.4699 356.986 60.5385C355.918 61.525 355.055 62.6758 354.397 63.991C353.822 65.3063 353.534 66.7448 353.534 68.3067V103.664C353.534 105.792 351.809 107.517 349.681 107.517H343.793C341.491 107.517 339.518 107.517 337.874 107.517C337.802 107.517 337.73 107.517 337.658 107.517ZM450.175 108.874C447.216 108.874 444.38 108.463 441.667 107.641C438.954 106.818 436.488 105.709 434.269 104.311C432.132 102.914 430.323 101.311 428.844 99.5025C427.836 98.1392 427.063 96.7546 426.526 95.3485C426.178 94.4387 426.715 93.4645 427.637 93.1486C428.909 92.7123 430.214 93.7181 430.116 95.06L429.475 103.822C429.328 105.835 427.651 107.394 425.632 107.394H414.695C412.566 107.394 410.841 105.669 410.841 103.541V20.1258C410.841 17.9977 412.566 16.2725 414.695 16.2725H426.84C428.968 16.2725 430.693 17.9977 430.693 20.1257V55.0296C430.693 56.3288 429.402 57.2331 428.181 56.7891C427.292 56.4658 426.772 55.5249 427.085 54.6325C427.625 53.098 428.416 51.6553 429.46 50.3043C430.858 48.4137 432.625 46.7696 434.762 45.3722C436.899 43.8925 439.242 42.7417 441.79 41.9197C444.339 41.0976 446.969 40.6866 449.682 40.6866C455.354 40.6866 460.368 42.1663 464.725 45.1256C469.164 48.0026 472.658 52.0306 475.206 57.2093C477.754 62.3059 479.028 68.1422 479.028 74.7184C479.028 81.3768 477.754 87.2954 475.206 92.4742C472.74 97.5707 469.328 101.599 464.972 104.558C460.615 107.435 455.683 108.874 450.175 108.874ZM444.996 92.2276C447.956 92.2276 450.545 91.4877 452.764 90.0081C454.984 88.5285 456.669 86.5145 457.82 83.9662C459.053 81.3357 459.67 78.2532 459.67 74.7184C459.67 71.2659 459.053 68.2244 457.82 65.594C456.669 62.9635 454.984 60.9495 452.764 59.5521C450.545 58.1546 447.956 57.4559 444.996 57.4559C441.955 57.4559 439.324 58.1546 437.105 59.5521C434.885 60.9495 433.159 62.9635 431.926 65.594C430.693 68.2244 430.077 71.2659 430.077 74.7184C430.077 78.2532 430.693 81.3357 431.926 83.9662C433.159 86.5145 434.885 88.5285 437.105 90.0081C439.324 91.4877 441.955 92.2276 444.996 92.2276ZM495.73 107.517C493.602 107.517 491.877 105.792 491.877 103.664V45.8962C491.877 43.7681 493.602 42.043 495.73 42.043H507.752C509.88 42.043 511.605 43.7681 511.605 45.8962V103.664C511.605 105.792 509.88 107.517 507.752 107.517H495.73ZM501.741 29.0961C498.042 29.0961 495.124 28.233 492.987 26.5067C490.931 24.6983 489.904 22.15 489.904 18.8619C489.904 15.9026 490.973 13.4776 493.11 11.587C495.247 9.6963 498.124 8.75098 501.741 8.75098C505.44 8.75098 508.317 9.6552 510.372 11.4637C512.427 13.1899 513.455 15.656 513.455 18.8619C513.455 21.9034 512.386 24.3694 510.249 26.2601C508.194 28.1508 505.358 29.0961 501.741 29.0961ZM558.872 135.877C553.529 135.877 548.186 135.096 542.843 133.534C538.909 132.366 535.526 130.946 532.695 129.272C531.092 128.325 530.624 126.282 531.457 124.616L534.972 117.586C536.009 115.513 538.628 114.833 540.722 115.825C541.331 116.113 541.956 116.385 542.596 116.642C544.733 117.546 546.953 118.245 549.254 118.738C551.556 119.231 553.899 119.478 556.283 119.478C560.475 119.478 563.886 118.861 566.517 117.628C569.147 116.395 571.12 114.504 572.436 111.956C573.751 109.49 574.408 106.366 574.408 102.585V93.6547C574.408 92.5829 575.368 91.7658 576.426 91.9365C577.408 92.0949 578.068 93.0489 577.725 93.9828C576.98 96.0138 575.71 97.8948 573.915 99.6258C571.696 101.845 568.942 103.654 565.654 105.051C562.366 106.366 558.872 107.024 555.173 107.024C549.254 107.024 543.952 105.668 539.267 102.955C534.664 100.16 531.005 96.3377 528.293 91.4877C525.662 86.5556 524.347 80.8836 524.347 74.4718C524.347 67.8956 525.662 62.1004 528.293 57.086C530.923 51.9895 534.54 48.0026 539.144 45.1256C543.747 42.1663 548.926 40.6866 554.68 40.6866C557.146 40.6866 559.489 40.9743 561.708 41.5498C564.01 42.1252 566.106 42.9061 567.997 43.8925C569.969 44.7968 571.696 45.9065 573.175 47.2217C574.737 48.4548 575.97 49.8111 576.874 51.2907C577.502 52.2322 577.997 53.1903 578.358 54.165C578.699 55.0839 578.09 56.0365 577.138 56.2674C575.96 56.5529 574.839 55.625 574.9 54.4146L575.335 45.7038C575.438 43.6531 577.13 42.043 579.184 42.043H590.407C592.535 42.043 594.26 43.7681 594.26 45.8962V102.215C594.26 107.558 593.438 112.285 591.794 116.395C590.232 120.587 587.89 124.122 584.766 126.999C581.724 129.958 578.025 132.178 573.669 133.658C569.312 135.137 564.38 135.877 558.872 135.877ZM559.365 91.7344C562.571 91.7344 565.325 91.0356 567.627 89.6382C570.011 88.1585 571.819 86.1446 573.052 83.5963C574.367 81.048 575.025 78.0476 575.025 74.5951C575.025 71.1426 574.367 68.1422 573.052 65.594C571.819 62.9635 570.011 60.9495 567.627 59.5521C565.325 58.0724 562.571 57.3326 559.365 57.3326C556.242 57.3326 553.529 58.0724 551.227 59.5521C548.926 60.9495 547.117 62.9635 545.802 65.594C544.569 68.1422 543.952 71.1426 543.952 74.5951C543.952 78.0476 544.569 81.048 545.802 83.5963C547.117 86.1446 548.926 88.1585 551.227 89.6382C553.529 91.0356 556.242 91.7344 559.365 91.7344ZM640.986 108.75C634.163 108.75 628.08 107.271 622.737 104.311C617.476 101.352 613.283 97.3241 610.16 92.2276C607.118 87.131 605.597 81.2946 605.597 74.7184C605.597 68.1422 607.118 62.3059 610.16 57.2093C613.283 52.1128 617.476 48.0849 622.737 45.1256C628.08 42.1663 634.163 40.6866 640.986 40.6866C647.808 40.6866 653.85 42.1663 659.111 45.1256C664.454 48.0849 668.647 52.1128 671.688 57.2093C674.73 62.3059 676.25 68.1422 676.25 74.7184C676.25 81.2946 674.73 87.131 671.688 92.2276C668.647 97.3241 664.454 101.352 659.111 104.311C653.85 107.271 647.808 108.75 640.986 108.75ZM640.986 91.7344C643.945 91.7344 646.575 90.9945 648.877 89.5149C651.179 88.0352 652.987 86.0213 654.302 83.473C655.618 80.9247 656.234 78.0065 656.152 74.7184C656.234 71.4303 655.618 68.5122 654.302 65.9639C652.987 63.3334 651.179 61.2783 648.877 59.7987C646.575 58.3191 643.945 57.5792 640.986 57.5792C638.026 57.5792 635.355 58.3191 632.971 59.7987C630.669 61.2783 628.861 63.3334 627.546 65.9639C626.23 68.5122 625.614 71.4303 625.696 74.7184C625.614 78.0065 626.23 80.9247 627.546 83.473C628.861 86.0213 630.669 88.0352 632.971 89.5149C635.355 90.9945 638.026 91.7344 640.986 91.7344Z" fill="white"/>
<path fill-rule="evenodd" clip-rule="evenodd" d="M23.7562 15.4555C24.7164 9.90409 30.407 6.61862 35.6947 8.56279C45.8016 12.2789 55.7922 16.5908 65.6211 21.5108L65.5274 21.7111L66.7684 22.4772C70.6391 24.8669 71.9317 29.9194 69.6416 33.8859C67.5008 37.594 62.9708 39.0661 59.1181 37.4781L59.0535 37.4515L58.9868 37.4304C55.5732 36.3532 52.1145 35.5483 48.6395 35.0081C45.0001 34.4422 41.4725 36.4789 40.1429 39.9136C38.9033 43.1158 37.8898 46.4307 37.1223 49.8387L37.0996 49.9392L37.0897 50.0419C36.6785 54.3216 33.07 57.6693 28.6816 57.6693C24.0877 57.6693 20.3499 54.0018 20.2368 49.4357L20.2005 47.9698L20 47.9526C20.6518 36.9441 21.915 26.1006 23.7562 15.4555ZM83.2734 41.7563C85.5667 37.7843 90.5992 36.3791 94.6069 38.5492L95.9004 39.2496L96.0294 39.0624C105.225 45.125 113.973 51.6336 122.262 58.5425C126.59 62.1497 126.59 68.7206 122.262 72.3279C114 79.2147 105.281 85.7037 96.1175 91.7498L96.0254 91.6186L94.7416 92.3177C90.731 94.5018 85.6869 93.0983 83.3902 89.1204C81.3491 85.5852 82.1535 81.1842 85.096 78.5783L86.1906 77.6089L86.1726 77.5832C88.5933 75.3166 90.8299 72.9009 92.8762 70.3592C95.186 67.4903 95.186 63.417 92.8762 60.5482C90.6938 57.8374 88.2949 55.27 85.6871 52.8739L85.6231 52.8151L85.5533 52.7634C82.1489 50.2439 81.1049 45.5123 83.2734 41.7563ZM45.828 65.41C45.828 57.3019 52.401 50.7289 60.5092 50.7289C68.6173 50.7289 75.1903 57.3019 75.1903 65.41C75.1903 73.5182 68.6173 80.0912 60.5092 80.0912C52.401 80.0912 45.828 73.5182 45.828 65.41ZM20.2389 81.5715C20.389 77.0389 24.1118 73.4097 28.6816 73.4097C32.9695 73.4097 36.5134 76.606 37.0566 80.7453L37.066 80.8171L37.0817 80.8878C37.854 84.3594 38.8813 87.7349 40.1429 90.9938C41.4725 94.4285 45.0001 96.4652 48.6395 95.8993C52.1792 95.349 55.702 94.5241 59.1774 93.4165L59.236 93.3979L59.293 93.3748C63.133 91.8253 67.6283 93.3014 69.7584 96.9907C72.091 101.031 70.7067 106.197 66.6664 108.53L66.6037 108.566C66.5781 108.58 66.5525 108.595 66.5268 108.609C66.508 108.619 66.4892 108.63 66.4704 108.64L65.1699 109.346L65.2526 109.544C55.5425 114.387 45.6754 118.638 35.6947 122.308C30.407 124.252 24.7164 120.966 23.7562 115.415C21.9199 104.798 20.6585 93.9837 20.0052 83.0053L20.1921 82.984L20.2389 81.5715Z" fill="white"/>
</g>
<defs>
<filter id="filter0_di_255_164" x="0.733803" y="0.293522" width="694.783" height="166.409" filterUnits="userSpaceOnUse" color-interpolation-filters="sRGB">
<feFlood flood-opacity="0" result="BackgroundImageFix"/>
<feColorMatrix in="SourceAlpha" type="matrix" values="0 0 0 0 0 0 0 0 0 0 0 0 0 0 0 0 0 0 127 0" result="hardAlpha"/>
<feOffset dy="11.5597"/>
<feGaussianBlur stdDeviation="9.6331"/>
<feComposite in2="hardAlpha" operator="out"/>
<feColorMatrix type="matrix" values="0 0 0 0 0.0378125 0 0 0 0 0.308298 0 0 0 0 0.504167 0 0 0 0.15 0"/>
<feBlend mode="normal" in2="BackgroundImageFix" result="effect1_dropShadow_255_164"/>
<feBlend mode="normal" in="SourceGraphic" in2="effect1_dropShadow_255_164" result="shape"/>
<feColorMatrix in="SourceAlpha" type="matrix" values="0 0 0 0 0 0 0 0 0 0 0 0 0 0 0 0 0 0 127 0" result="hardAlpha"/>
<feOffset dy="-2"/>
<feComposite in2="hardAlpha" operator="arithmetic" k2="-1" k3="1"/>
<feColorMatrix type="matrix" values="0 0 0 0 0.905882 0 0 0 0 0.94902 0 0 0 0 1 0 0 0 0.9 0"/>
<feBlend mode="normal" in2="shape" result="effect2_innerShadow_255_164"/>
</filter>
</defs>
</svg>
