<svg width="657" height="129" viewBox="0 0 657 129" fill="none" xmlns="http://www.w3.org/2000/svg">
<g filter="url(#filter0_di_256_256)">
<path d="M168.693 99.5172C166.565 99.5172 164.84 97.7921 164.84 95.664V17.0579C164.84 14.9298 166.565 13.2046 168.693 13.2046H181.948C184.077 13.2046 185.802 14.9298 185.802 17.0579V95.664C185.802 97.7921 184.077 99.5172 181.948 99.5172H168.693ZM178.434 66.4718C176.306 66.4718 174.581 64.7467 174.581 62.6186V52.816C174.581 50.6879 176.306 48.9627 178.434 48.9627H215.364C217.492 48.9627 219.217 50.6879 219.217 52.816V62.6186C219.217 64.7467 217.492 66.4718 215.364 66.4718H178.434ZM178.434 31.7002C176.306 31.7002 174.581 29.975 174.581 27.847V17.0579C174.581 14.9298 176.306 13.2046 178.434 13.2046H220.419C222.547 13.2046 224.272 14.9298 224.272 17.0579V27.847C224.272 29.975 222.547 31.7002 220.419 31.7002H178.434ZM258.245 100.874C253.395 100.874 249.243 99.846 245.791 97.791C242.421 95.6537 239.79 92.6122 237.899 88.6665C236.091 84.7208 235.187 79.9941 235.187 74.4866V37.8962C235.187 35.7681 236.912 34.043 239.04 34.043H251.185C253.313 34.043 255.039 35.7681 255.039 37.8962V71.7739C255.039 74.4044 255.45 76.6649 256.272 78.5556C257.094 80.4463 258.327 81.9259 259.971 82.9945C261.615 83.981 263.588 84.4742 265.889 84.4742C267.616 84.4742 269.177 84.1865 270.575 83.611C272.055 83.0356 273.288 82.2547 274.274 81.2683C275.343 80.1996 276.165 79.0077 276.74 77.6925C277.316 76.295 277.603 74.7743 277.603 73.1302V37.8962C277.603 35.7681 279.328 34.043 281.456 34.043H293.602C295.73 34.043 297.455 35.7681 297.455 37.8962V95.664C297.455 97.7921 295.73 99.5172 293.602 99.5172H282.45C280.418 99.5172 278.735 97.939 278.605 95.9109L278.038 87.093C277.999 86.487 278.354 85.9246 278.918 85.6991C280.019 85.2589 281.097 86.2856 280.59 87.3565C279.625 89.3909 278.342 91.2661 276.74 92.9821C274.438 95.366 271.685 97.2978 268.479 98.7774C265.273 100.175 261.861 100.874 258.245 100.874ZM317.658 99.5172C315.53 99.5172 313.805 97.7921 313.805 95.664V37.8962C313.805 35.7681 315.531 34.043 317.659 34.043H328.869C330.927 34.043 332.622 35.6614 332.718 37.718L333.113 46.2488C333.143 46.911 332.743 47.5175 332.123 47.7503C330.936 48.1953 329.8 47.0958 330.363 45.9603C331.276 44.1213 332.497 42.4094 334.027 40.8247C336.411 38.3586 339.247 36.3857 342.535 34.9061C345.823 33.4264 349.276 32.6866 352.893 32.6866C357.825 32.6866 361.976 33.7142 365.346 35.7692C368.717 37.7421 371.265 40.7425 372.991 44.7704C374.717 48.7161 375.58 53.5661 375.58 59.3202V95.664C375.58 97.7921 373.855 99.5172 371.727 99.5172H359.582C357.454 99.5172 355.729 97.7921 355.729 95.664V60.9232C355.729 58.2927 355.359 56.1143 354.619 54.3881C353.879 52.6618 352.728 51.3877 351.166 50.5657C349.687 49.6614 347.837 49.2504 345.618 49.3326C343.891 49.3326 342.289 49.6203 340.809 50.1958C339.329 50.689 338.055 51.4699 336.986 52.5385C335.918 53.525 335.055 54.6758 334.397 55.991C333.822 57.3063 333.534 58.7448 333.534 60.3067V95.664C333.534 97.7921 331.809 99.5172 329.681 99.5172H323.793C321.491 99.5172 319.518 99.5172 317.874 99.5172C317.802 99.5172 317.73 99.5172 317.658 99.5172ZM430.175 100.874C427.216 100.874 424.38 100.463 421.667 99.6405C418.954 98.8185 416.488 97.7088 414.269 96.3113C412.132 94.9139 410.323 93.3109 408.844 91.5025C407.836 90.1392 407.063 88.7546 406.526 87.3485C406.178 86.4387 406.715 85.4645 407.637 85.1486C408.909 84.7123 410.214 85.7181 410.116 87.06L409.475 95.8219C409.328 97.8355 407.651 99.3939 405.632 99.3939H394.695C392.566 99.3939 390.841 97.6688 390.841 95.5407V12.1258C390.841 9.99767 392.566 8.27251 394.695 8.27251H406.84C408.968 8.27251 410.693 9.99766 410.693 12.1257V47.0296C410.693 48.3288 409.402 49.2331 408.181 48.7891C407.292 48.4658 406.772 47.5249 407.085 46.6325C407.625 45.098 408.416 43.6553 409.46 42.3043C410.858 40.4137 412.625 38.7696 414.762 37.3722C416.899 35.8925 419.242 34.7417 421.79 33.9197C424.339 33.0976 426.969 32.6866 429.682 32.6866C435.354 32.6866 440.368 34.1663 444.725 37.1256C449.164 40.0026 452.658 44.0306 455.206 49.2093C457.754 54.3059 459.028 60.1422 459.028 66.7184C459.028 73.3768 457.754 79.2954 455.206 84.4742C452.74 89.5707 449.328 93.5986 444.972 96.5579C440.615 99.435 435.683 100.874 430.175 100.874ZM424.996 84.2276C427.956 84.2276 430.545 83.4877 432.764 82.0081C434.984 80.5285 436.669 78.5145 437.82 75.9662C439.053 73.3357 439.67 70.2532 439.67 66.7184C439.67 63.2659 439.053 60.2244 437.82 57.594C436.669 54.9635 434.984 52.9495 432.764 51.5521C430.545 50.1546 427.956 49.4559 424.996 49.4559C421.955 49.4559 419.324 50.1546 417.105 51.5521C414.885 52.9495 413.159 54.9635 411.926 57.594C410.693 60.2244 410.077 63.2659 410.077 66.7184C410.077 70.2532 410.693 73.3357 411.926 75.9662C413.159 78.5145 414.885 80.5285 417.105 82.0081C419.324 83.4877 421.955 84.2276 424.996 84.2276ZM475.73 99.5172C473.602 99.5172 471.877 97.7921 471.877 95.664V37.8962C471.877 35.7681 473.602 34.043 475.73 34.043H487.752C489.88 34.043 491.605 35.7681 491.605 37.8962V95.664C491.605 97.7921 489.88 99.5172 487.752 99.5172H475.73ZM481.741 21.0961C478.042 21.0961 475.124 20.233 472.987 18.5067C470.931 16.6983 469.904 14.15 469.904 10.8619C469.904 7.90259 470.973 5.47762 473.11 3.58696C475.247 1.6963 478.124 0.750977 481.741 0.750977C485.44 0.750977 488.317 1.6552 490.372 3.46366C492.427 5.18991 493.455 7.65599 493.455 10.8619C493.455 13.9034 492.386 16.3694 490.249 18.2601C488.194 20.1508 485.358 21.0961 481.741 21.0961ZM538.872 127.877C533.529 127.877 528.186 127.096 522.843 125.534C518.909 124.366 515.526 122.946 512.695 121.272C511.092 120.325 510.624 118.282 511.457 116.616L514.972 109.586C516.009 107.513 518.628 106.833 520.722 107.825C521.331 108.113 521.956 108.385 522.596 108.642C524.733 109.546 526.953 110.245 529.254 110.738C531.556 111.231 533.899 111.478 536.283 111.478C540.475 111.478 543.886 110.861 546.517 109.628C549.147 108.395 551.12 106.504 552.436 103.956C553.751 101.49 554.408 98.3664 554.408 94.5851V85.6547C554.408 84.5829 555.368 83.7658 556.426 83.9365C557.408 84.0949 558.068 85.0489 557.725 85.9828C556.98 88.0138 555.71 89.8948 553.915 91.6258C551.696 93.8453 548.942 95.6537 545.654 97.0511C542.366 98.3664 538.872 99.024 535.173 99.024C529.254 99.024 523.952 97.6677 519.267 94.955C514.664 92.1601 511.005 88.3377 508.293 83.4877C505.662 78.5556 504.347 72.8836 504.347 66.4718C504.347 59.8956 505.662 54.1004 508.293 49.086C510.923 43.9895 514.54 40.0026 519.144 37.1256C523.747 34.1663 528.926 32.6866 534.68 32.6866C537.146 32.6866 539.489 32.9743 541.708 33.5498C544.01 34.1252 546.106 34.9061 547.997 35.8925C549.969 36.7968 551.696 37.9065 553.175 39.2217C554.737 40.4548 555.97 41.8111 556.874 43.2907C557.502 44.2322 557.997 45.1903 558.358 46.165C558.699 47.0839 558.09 48.0365 557.138 48.2674C555.96 48.5529 554.839 47.625 554.9 46.4146L555.335 37.7038C555.438 35.6531 557.13 34.043 559.184 34.043H570.407C572.535 34.043 574.26 35.7681 574.26 37.8962V94.2152C574.26 99.5583 573.438 104.285 571.794 108.395C570.232 112.587 567.89 116.122 564.766 118.999C561.724 121.958 558.025 124.178 553.669 125.658C549.312 127.137 544.38 127.877 538.872 127.877ZM539.365 83.7344C542.571 83.7344 545.325 83.0356 547.627 81.6382C550.011 80.1585 551.819 78.1446 553.052 75.5963C554.367 73.048 555.025 70.0476 555.025 66.5951C555.025 63.1426 554.367 60.1422 553.052 57.594C551.819 54.9635 550.011 52.9495 547.627 51.5521C545.325 50.0724 542.571 49.3326 539.365 49.3326C536.242 49.3326 533.529 50.0724 531.227 51.5521C528.926 52.9495 527.117 54.9635 525.802 57.594C524.569 60.1422 523.952 63.1426 523.952 66.5951C523.952 70.0476 524.569 73.048 525.802 75.5963C527.117 78.1446 528.926 80.1585 531.227 81.6382C533.529 83.0356 536.242 83.7344 539.365 83.7344ZM620.986 100.75C614.163 100.75 608.08 99.2706 602.737 96.3113C597.476 93.352 593.283 89.3241 590.16 84.2276C587.118 79.131 585.597 73.2946 585.597 66.7184C585.597 60.1422 587.118 54.3059 590.16 49.2093C593.283 44.1128 597.476 40.0849 602.737 37.1256C608.08 34.1663 614.163 32.6866 620.986 32.6866C627.808 32.6866 633.85 34.1663 639.111 37.1256C644.454 40.0849 648.647 44.1128 651.688 49.2093C654.73 54.3059 656.25 60.1422 656.25 66.7184C656.25 73.2946 654.73 79.131 651.688 84.2276C648.647 89.3241 644.454 93.352 639.111 96.3113C633.85 99.2706 627.808 100.75 620.986 100.75ZM620.986 83.7344C623.945 83.7344 626.575 82.9945 628.877 81.5149C631.179 80.0352 632.987 78.0213 634.302 75.473C635.618 72.9247 636.234 70.0065 636.152 66.7184C636.234 63.4303 635.618 60.5122 634.302 57.9639C632.987 55.3334 631.179 53.2783 628.877 51.7987C626.575 50.3191 623.945 49.5792 620.986 49.5792C618.026 49.5792 615.355 50.3191 612.971 51.7987C610.669 53.2783 608.861 55.3334 607.546 57.9639C606.23 60.5122 605.614 63.4303 605.696 66.7184C605.614 70.0065 606.23 72.9247 607.546 75.473C608.861 78.0213 610.669 80.0352 612.971 81.5149C615.355 82.9945 618.026 83.7344 620.986 83.7344Z" fill="#6559FF"/>
<path fill-rule="evenodd" clip-rule="evenodd" d="M3.75621 7.45549C4.71637 1.90409 10.407 -1.38138 15.6947 0.562793C25.8016 4.27888 35.7922 8.59079 45.6211 13.5108L45.5274 13.7111L46.7684 14.4772C50.6391 16.8669 51.9317 21.9194 49.6416 25.8859C47.5008 29.594 42.9708 31.0661 39.1181 29.4781L39.0535 29.4515L38.9868 29.4304C35.5732 28.3532 32.1145 27.5483 28.6395 27.0081C25.0001 26.4422 21.4725 28.4789 20.1429 31.9136C18.9033 35.1158 17.8898 38.4307 17.1223 41.8387L17.0996 41.9392L17.0897 42.0419C16.6785 46.3216 13.07 49.6693 8.68155 49.6693C4.08767 49.6693 0.34987 46.0018 0.236832 41.4357L0.20054 39.9698L0 39.9526C0.651782 28.9441 1.91504 18.1006 3.75621 7.45549ZM63.2734 33.7563C65.5667 29.7843 70.5992 28.3791 74.6069 30.5492L75.9004 31.2496L76.0294 31.0624C85.2252 37.125 93.9735 43.6336 102.262 50.5425C106.59 54.1497 106.59 60.7206 102.262 64.3279C93.9999 71.2147 85.2811 77.7037 76.1175 83.7498L76.0254 83.6186L74.7416 84.3177C70.731 86.5018 65.6869 85.0983 63.3902 81.1204C61.3491 77.5852 62.1535 73.1842 65.096 70.5783L66.1906 69.6089L66.1726 69.5832C68.5933 67.3166 70.8299 64.9009 72.8762 62.3592C75.186 59.4903 75.186 55.417 72.8762 52.5482C70.6938 49.8374 68.2949 47.27 65.6871 44.8739L65.6231 44.8151L65.5533 44.7634C62.1489 42.2439 61.1049 37.5123 63.2734 33.7563ZM25.828 57.41C25.828 49.3019 32.401 42.7289 40.5092 42.7289C48.6173 42.7289 55.1903 49.3019 55.1903 57.41C55.1903 65.5182 48.6173 72.0912 40.5092 72.0912C32.401 72.0912 25.828 65.5182 25.828 57.41ZM0.238908 73.5715C0.388972 69.0389 4.11177 65.4097 8.68155 65.4097C12.9695 65.4097 16.5134 68.606 17.0566 72.7453L17.066 72.8171L17.0817 72.8878C17.854 76.3594 18.8813 79.7349 20.1429 82.9938C21.4725 86.4285 25.0001 88.4652 28.6395 87.8993C32.1792 87.349 35.702 86.5241 39.1774 85.4165L39.236 85.3979L39.293 85.3748C43.133 83.8253 47.6283 85.3014 49.7584 88.9907C52.091 93.031 50.7067 98.1973 46.6664 100.53L46.6037 100.566C46.5781 100.58 46.5525 100.595 46.5268 100.609C46.508 100.619 46.4892 100.63 46.4704 100.64L45.1699 101.346L45.2526 101.544C35.5425 106.387 25.6754 110.638 15.6947 114.308C10.407 116.252 4.71636 112.966 3.7562 107.415C1.91992 96.7979 0.658485 85.9837 0.00519872 75.0053L0.192143 74.984L0.238908 73.5715Z" fill="#6559FF"/>
</g>
<defs>
<filter id="filter0_di_256_256" x="0" y="0" width="656.25" height="128.877" filterUnits="userSpaceOnUse" color-interpolation-filters="sRGB">
<feFlood flood-opacity="0" result="BackgroundImageFix"/>
<feColorMatrix in="SourceAlpha" type="matrix" values="0 0 0 0 0 0 0 0 0 0 0 0 0 0 0 0 0 0 127 0" result="hardAlpha"/>
<feOffset dy="1"/>
<feComposite in2="hardAlpha" operator="out"/>
<feColorMatrix type="matrix" values="0 0 0 0 0.313726 0 0 0 0 0.341176 0 0 0 0 0.964706 0 0 0 1 0"/>
<feBlend mode="normal" in2="BackgroundImageFix" result="effect1_dropShadow_256_256"/>
<feBlend mode="normal" in="SourceGraphic" in2="effect1_dropShadow_256_256" result="shape"/>
<feColorMatrix in="SourceAlpha" type="matrix" values="0 0 0 0 0 0 0 0 0 0 0 0 0 0 0 0 0 0 127 0" result="hardAlpha"/>
<feOffset dy="-2"/>
<feComposite in2="hardAlpha" operator="arithmetic" k2="-1" k3="1"/>
<feColorMatrix type="matrix" values="0 0 0 0 0.313726 0 0 0 0 0.341176 0 0 0 0 0.964706 0 0 0 1 0"/>
<feBlend mode="normal" in2="shape" result="effect2_innerShadow_256_256"/>
</filter>
</defs>
</svg>
