<svg width="512" height="512" viewBox="0 0 512 512" fill="none" xmlns="http://www.w3.org/2000/svg">
<path fill-rule="evenodd" clip-rule="evenodd" d="M120.838 103.402C123.769 86.4525 141.144 76.4213 157.288 82.3572C188.147 93.7032 218.65 106.868 248.659 121.89L248.373 122.502L252.162 124.841C263.98 132.137 267.927 147.563 260.935 159.674C254.399 170.995 240.568 175.49 228.806 170.642L228.609 170.561L228.405 170.496C217.982 167.207 207.422 164.75 196.811 163.1C185.7 161.372 174.929 167.591 170.869 178.077C167.084 187.855 163.99 197.976 161.647 208.381L161.578 208.688L161.547 209.002C160.291 222.068 149.274 232.289 135.876 232.289C121.85 232.289 110.438 221.091 110.092 207.15L109.981 202.675L109.369 202.622C111.359 169.011 115.216 135.904 120.838 103.402ZM302.556 183.703C309.557 171.576 324.923 167.286 337.159 173.912L341.108 176.05L341.502 175.479C369.579 193.989 396.289 213.861 421.596 234.955C434.809 245.969 434.809 266.031 421.596 277.045C396.37 298.072 369.75 317.884 341.771 336.344L341.49 335.943L337.57 338.077C325.325 344.746 309.924 340.461 302.912 328.315C296.68 317.522 299.136 304.085 308.12 296.128L311.462 293.169L311.407 293.09C318.798 286.17 325.627 278.794 331.875 271.034C338.927 262.275 338.927 249.838 331.875 241.079C325.211 232.802 317.886 224.963 309.924 217.647L309.728 217.467L309.515 217.309C299.122 209.617 295.935 195.171 302.556 183.703ZM188.227 255.923C188.227 231.167 208.296 211.099 233.052 211.099C257.808 211.099 277.876 231.167 277.876 255.923C277.876 280.679 257.808 300.747 233.052 300.747C208.296 300.747 188.227 280.679 188.227 255.923ZM110.099 305.267C110.557 291.428 121.923 280.348 135.876 280.348C148.967 280.348 159.788 290.106 161.446 302.744L161.475 302.963L161.523 303.179C163.881 313.779 167.017 324.085 170.869 334.035C174.929 344.522 185.699 350.741 196.811 349.013C207.617 347.333 218.371 344.815 228.98 341.434L229.16 341.377L229.334 341.307C241.059 336.573 254.787 341.079 261.291 352.345C268.413 364.681 264.187 380.454 251.851 387.577C251.809 387.601 251.766 387.626 251.723 387.65C251.666 387.682 251.609 387.715 251.551 387.747C251.452 387.803 251.352 387.858 251.252 387.912L247.282 390.069L247.535 390.672C217.888 405.46 187.761 418.439 157.288 429.643C141.144 435.579 123.769 425.548 120.838 408.598C115.231 376.183 111.38 343.165 109.385 309.645L109.956 309.58L110.099 305.267Z" fill="white"/>
</svg>
